<svg width="130" height="86" viewBox="0 0 130 86" fill="none" xmlns="http://www.w3.org/2000/svg">
<path d="M88.7293 72.9534C87.5969 72.9534 86.4154 72.4592 85.6277 71.4708C84.2492 69.7906 84.4954 67.2702 86.1692 65.8371L99.7077 54.7179L65.3446 31.6888L30.8339 54.7179L44.3231 65.8371C45.9969 67.2208 46.2431 69.7412 44.8646 71.4708C43.4862 73.2005 40.9754 73.3981 39.2523 72.0144L21.6769 57.5348C20.6923 56.7441 20.1508 55.5086 20.2492 54.2731C20.2985 52.9883 20.9877 51.8516 22.0215 51.1598L63.2277 23.683C64.5569 22.7935 66.28 22.7935 67.6092 23.683L108.618 51.1598C109.652 51.8516 110.342 53.0377 110.391 54.2731C110.44 55.558 109.898 56.7441 108.963 57.5348L91.24 72.0638C90.5015 72.6569 89.6154 72.9534 88.7293 72.9534Z" fill="#212121"/>
<path d="M76.9139 81.8983L70.6616 70.9768C74.2554 69.0495 76.7169 65.2443 76.7169 60.8954C76.7169 54.5698 71.6462 49.4797 65.3446 49.4797C59.0431 49.4797 53.9723 54.5698 53.9723 60.8954C53.9723 65.2443 56.4339 69.0495 60.0277 70.9768L53.7754 81.8983C52.7908 83.6774 54.0216 85.8518 56.04 85.8518H74.6985C76.6677 85.8518 77.9477 83.6774 76.9139 81.8983Z" fill="#1B9CDD"/>
<path d="M4.88924 48.7384C3.60924 48.7384 2.32924 48.0959 1.59078 46.9593C0.360008 45.1308 0.901548 42.6599 2.72309 41.4244L62.7354 1.54362C64.0646 0.654081 65.7877 0.654081 67.1169 1.54362L127.425 41.3256C129.246 42.5116 129.788 44.9826 128.557 46.8605C127.326 48.7384 124.914 49.2326 123.043 47.9971L64.9508 9.64827L7.10462 48.0959C6.41539 48.4913 5.6277 48.7384 4.88924 48.7384Z" fill="#1B9CDD"/>
</svg>
