<svg width="514" height="268" viewBox="0 0 514 268" fill="none" xmlns="http://www.w3.org/2000/svg">
<path d="M87.8 193.3C87.4 192.2 86.2 190.3 83 190.3C79.8 190.3 77.6 191.8 76.8 194.6L63.1 242.5L50.5 195.6C50.2 194.1 49.3 193 48 192.2C45.6 190.8 42.6 190.9 40.5 192.4C39.3 193.2 38.6 194.3 38.2 195.6L25.7 242.1L12.2 195C11.7 193.4 10.9 192.2 9.70001 191.4C8.60001 190.6 7.30001 190.3 5.90001 190.3C3.20001 190.3 1.80001 191.7 1.10001 192.9C0.20001 194.5 0.100014 196.5 0.800014 199L19.3 260.6C19.8 262.1 20.6 263.3 21.7 264.1C22.8 265 24.2 265.5 25.6 265.5C27 265.5 28.4 265 29.5 264.1C30.5 263.2 31.3 262.1 31.9 260.5L44.3 213.4L56.5 260.7C57 262 57.7 263.1 58.7 264C59.8 265 61.2 265.5 62.8 265.5C64.4 265.5 65.6 265 66.7 264.1C67.7 263.2 68.5 262.1 69.1 260.5L87.6 199C88.4 196.8 88.4 194.9 87.8 193.3Z" fill="#F1F3F2"/>
<path d="M122.9 214.9C119.2 212.6 114.8 211.5 109.7 211.5C104.6 211.5 100 212.7 96 215C92 217.3 88.9 220.6 86.6 224.6C84.4 228.7 83.2 233.4 83.2 238.7C83.2 244 84.4 248.7 86.8 252.7C89.2 256.8 92.5 260 96.7 262.3C100.9 264.6 105.7 265.8 111.1 265.8C114.1 265.8 117.2 265.3 120.5 264.2C123.8 263.1 126.5 261.7 128.8 259.9C130.7 258.5 131 256.8 130.9 255.7C130.8 254.2 130.1 252.8 128.7 251.5C127.6 250.6 126.3 250.1 124.8 250.2C123.4 250.2 122.1 250.7 120.9 251.6C119.8 252.4 118.3 253.2 116.5 253.8C114.7 254.4 112.9 254.8 111.2 254.8C108 254.8 105.1 254.1 102.7 252.7C100.3 251.3 98.2999 249.4 96.8999 247C96.2999 246 95.8 244.8 95.5 243.6H128.5C130.1 243.6 131.6 243.1 132.6 242C133.7 240.9 134.3 239.6 134.3 238C134.3 232.9 133.3 228.4 131.4 224.4C129.5 220.3 126.6 217.2 122.9 214.9ZM95.5 233C95.8 232 96.1 231.2 96.5 230.4C97.7 228 99.4 226.1 101.6 224.8C103.8 223.5 106.6 222.7 109.7 222.7C112.4 222.7 114.8 223.3 116.7 224.6C118.6 225.9 120.1 227.5 121.1 229.7C121.6 230.7 122 231.9 122.3 233.1L95.5 233Z" fill="#F1F3F2"/>
<path d="M180.7 208.1C183.2 205.5 186.2 203.4 189.5 201.9C192.8 200.4 196.2 199.6 199.9 199.6C203.2 199.6 206.3 200.1 209.1 200.9C211.8 201.7 214.2 203.1 216.4 205.1C216.8 205.4 217.2 205.7 217.5 205.9C217.9 206.2 218.4 206.4 218.8 206.6C219.4 206.8 220 206.9 220.7 206.9C222.5 206.9 224.1 206.2 225.2 204.9C226.2 203.7 226.7 202.4 226.7 200.8C226.7 199 226 197.5 224.7 196.5C221.1 193.5 217.2 191.2 213 189.8C208.9 188.3 204.4 187.6 199.9 187.6C194.4 187.6 189.2 188.7 184.5 190.8C179.8 192.9 175.6 195.8 172 199.5C168.4 203.2 165.6 207.5 163.6 212.3C161.6 217.1 160.6 222.3 160.6 227.7C160.6 233.1 161.7 238.4 163.7 243.2C165.8 248 168.6 252.3 172.2 256C175.8 259.7 180 262.6 184.7 264.7C189.4 266.8 194.5 267.9 199.9 267.9C204.4 267.9 208.8 267.3 213 266.1C217.5 264.8 221.5 262.5 224.8 259.1C225.6 258.3 226 257.5 226.2 256.5C226.3 256 226.3 255.4 226.3 254.9C226.3 253.3 225.7 251.8 224.6 250.7C223.6 249.7 222.5 249.1 221.1 248.9C219.5 248.6 217.9 249 216.8 250C214.3 252 211.7 253.5 208.9 254.5C206.1 255.5 203 256 199.8 256C196.1 256 192.5 255.3 189.3 253.8C186 252.4 183.1 250.3 180.6 247.7C178.1 245.1 176.1 242.1 174.7 238.6C173.3 235.2 172.6 231.5 172.6 227.7C172.6 223.9 173.3 220.4 174.7 217.1C176.1 213.8 178.2 210.8 180.7 208.1Z" fill="#F1F3F2"/>
<path d="M332.7 212.7C328.9 210.8 324.1 209.6 319.4 209.6C314.7 209.6 309.7 210.8 306.1 212.7C302 214.8 298.8 217.9 296.5 221.9C294.2 225.8 293 230.7 293 236.4V261.2C293 262.8 293.6 264.3 294.7 265.4C295.8 266.5 297.3 267.1 298.9 267.1C300.5 267.2 302.1 266.5 303.1 265.4C304.2 264.3 304.8 262.8 304.8 261.2V236.4C304.8 232.9 305.4 230.1 306.7 228C308 225.9 309.6 224.3 311.7 223.3C313.9 222.2 316.5 221.7 319.3 221.7C322.2 221.7 324.7 222.3 326.9 223.3C329 224.3 330.7 225.9 331.9 228C333.2 230.1 333.8 233 333.8 236.4V261.2C333.8 262.8 334.4 264.3 335.5 265.4C336.6 266.5 338.1 267.1 339.7 267.1C341.3 267.1 342.8 266.5 343.9 265.4C345 264.3 345.6 262.8 345.6 261.2V236.4C345.6 230.8 344.4 225.9 342.1 221.9C340 217.8 336.7 214.8 332.7 212.7Z" fill="#F1F3F2"/>
<path d="M381 255H379C376.3 255 374.3 254.2 372.7 252.6C371.1 250.9 370.3 248.9 370.3 246.1V223.4H379.3C380.9 223.4 382.3 222.8 383.3 221.8C384.4 220.7 384.9 219.3 384.9 217.8C384.9 216.2 384.3 214.8 383.3 213.7C382.2 212.6 380.8 212.1 379.3 212.1H370.3V200.3C370.3 198.6 369.7 197.1 368.6 196C367.5 194.9 366 194.3 364.3 194.3C362.6 194.3 361.2 194.9 360.1 196C359 197.1 358.4 198.6 358.4 200.3V212.1H354.4C352.8 212.1 351.4 212.7 350.4 213.7C349.3 214.8 348.8 216.2 348.8 217.7C348.8 219.3 349.4 220.7 350.4 221.8C351.4 222.9 352.9 223.4 354.4 223.4H358.4V246.1C358.4 250 359.3 253.6 361 256.7C362.8 259.9 365.3 262.4 368.4 264.2C371.5 266 375.1 266.9 379 267H381.1C382.8 267 384.3 266.4 385.4 265.3C386.5 264.2 387.1 262.7 387.1 261.1C387.1 259.5 386.5 257.9 385.4 256.8C384.2 255.7 382.8 255.1 381 255Z" fill="#F1F3F2"/>
<path d="M429 217.3C429.6 214.4 428.4 211.9 425.7 210.7C424 210 421.8 209.6 419 209.6C415 209.6 411.3 210.6 407.9 212.6C407.2 213 406.6 213.5 406 213.9C405.7 213.1 405.3 212.3 404.7 211.7C403.6 210.6 402.1 210 400.4 210C398.8 210 397.4 210.6 396.2 211.6C395.4 212.4 394.4 213.7 394.4 216V260.9C394.4 262.5 395 264 396.1 265.1C397.2 266.2 398.7 266.8 400.3 266.8C402.5 266.8 403.9 265.8 404.7 265C405.7 263.9 406.3 262.4 406.3 260.8V232.8C406.3 230.5 406.8 228.5 407.9 226.7C408.9 225 410.4 223.6 412.3 222.6C414.2 221.6 416.5 221 419 221C420 221 420.9 221.1 421.7 221.2C423.1 221.4 424.4 221.4 425.5 221.1C426.3 221.2 428.4 220.3 429 217.3Z" fill="#F1F3F2"/>
<path d="M512.7 257.5L512.3 257C511.3 255.8 509.8 255.2 508.2 255.2H505.9C505.3 255.2 504.6 255 503.9 253.9C503.1 252.6 502.6 250.9 502.6 248.7V194.7C502.6 193 502 191.5 500.9 190.4C500.1 189.6 498.8 188.7 496.6 188.7C495 188.7 493.5 189.2 492.4 190.3C491.6 191.1 490.6 192.4 490.6 194.7V248.7C490.6 252.1 491.2 255.3 492.4 257.9C493.7 260.7 495.4 262.9 497.7 264.5C500 266.2 502.8 267 505.8 267H507.6C509.8 267 511.2 266 512 265.2C513 264.1 513.6 262.6 513.6 261C513.7 259.7 513.4 258.5 512.7 257.5Z" fill="#F1F3F2"/>
<path d="M258.6 210.8C242.3 210.8 229.1 224 229.1 240.3C229.1 251.2 235.1 261.2 244.7 266.3C247.4 267.8 250.8 266.7 252.2 264C253.7 261.3 252.6 257.9 249.9 256.5C243.9 253.3 240.2 247.1 240.2 240.3C240.2 230.2 248.4 222 258.5 222C268.6 222 276.8 230.2 276.8 240.3C276.8 247.1 273.1 253.3 267.1 256.5C264.4 257.9 263.3 261.3 264.8 264C265.8 265.8 267.7 267 269.7 267C270.6 267 271.5 266.8 272.3 266.3C281.9 261.2 287.9 251.2 287.9 240.3C288.1 224 274.9 210.8 258.6 210.8Z" fill="#F1F3F2"/>
<path d="M456.5 210.8C440.2 210.8 427 224 427 240.3C427 251.2 433 261.2 442.6 266.3C445.3 267.8 448.7 266.7 450.1 264C451.6 261.3 450.5 257.9 447.8 256.5C441.8 253.3 438.1 247.1 438.1 240.3C438.1 230.2 446.3 222 456.4 222C466.5 222 474.7 230.2 474.7 240.3C474.7 247.1 471 253.3 465 256.5C462.3 257.9 461.2 261.3 462.7 264C463.7 265.8 465.6 267 467.6 267C468.5 267 469.4 266.8 470.2 266.3C479.8 261.2 485.8 251.2 485.8 240.3C486 224 472.8 210.8 456.5 210.8Z" fill="#F1F3F2"/>
<path d="M305.2 146.6C302.9 146.6 300.5 145.6 298.9 143.6C296.1 140.2 296.6 135.1 300 132.2L327.5 109.7L257.7 63.1L187.6 109.7L215 132.2C218.4 135 218.9 140.1 216.1 143.6C213.3 147.1 208.2 147.5 204.7 144.7L169 115.4C167 113.8 165.9 111.3 166.1 108.8C166.2 106.2 167.6 103.9 169.7 102.5L253.4 46.9C256.1 45.1 259.6 45.1 262.3 46.9L345.6 102.5C347.7 103.9 349.1 106.3 349.2 108.8C349.3 111.4 348.2 113.8 346.3 115.4L310.3 144.8C308.8 146 307 146.6 305.2 146.6Z" fill="#F1F3F2"/>
<path d="M147.4 250.9C145.3 250.9 143.4 251.7 141.8 253.3C140.2 254.9 139.4 256.8 139.4 259C139.4 261.2 140.2 263 141.8 264.6C143.4 266.2 145.2 267 147.4 267C149.6 267 151.5 266.2 153.1 264.6C154.6 263 155.4 261.2 155.4 259C155.4 256.8 154.6 254.9 153.1 253.3C151.5 251.7 149.6 250.9 147.4 250.9Z" fill="#F1F3F2"/>
<path d="M281.2 164.7L268.5 142.6C275.8 138.7 280.8 131 280.8 122.2C280.8 109.4 270.5 99.1 257.7 99.1C244.9 99.1 234.6 109.4 234.6 122.2C234.6 131 239.6 138.7 246.9 142.6L234.2 164.7C232.2 168.3 234.7 172.7 238.8 172.7H276.7C280.7 172.7 283.3 168.3 281.2 164.7Z" fill="#F1F3F2"/>
<path d="M134.9 97.6C132.3 97.6 129.7 96.3 128.2 94C125.7 90.3 126.8 85.3 130.5 82.8L252.4 2.1C255.1 0.3 258.6 0.3 261.3 2.1L383.8 82.6C387.5 85 388.6 90 386.1 93.8C383.6 97.6 378.7 98.6 374.9 96.1L256.9 18.5L139.4 96.3C138 97.1 136.4 97.6 134.9 97.6Z" fill="#F1F3F2"/>
</svg>
