<?xml version="1.0" encoding="utf-8"?>
<!-- Generator: Adobe Illustrator 24.1.1, SVG Export Plug-In . SVG Version: 6.00 Build 0)  -->
<svg version="1.1" id="Layer_2" xmlns="http://www.w3.org/2000/svg" xmlns:xlink="http://www.w3.org/1999/xlink" x="0px" y="0px"
	 viewBox="0 0 21 22" style="enable-background:new 0 0 21 22;" xml:space="preserve">
<style type="text/css">
	.st0{fill-rule:evenodd;clip-rule:evenodd;fill:#9CA3AF;}
</style>
<path class="st0" d="M14.4,21.3h-0.4c0-1.8-0.1-4.4-0.1-6.5l2.9-0.1l0.5-3.2l-3.4,0.2c0.1-2.6,0.5-3.1,2.3-3.1c0.5,0,1.1,0,1.4,0
	V5.3c-1-0.1-1.9-0.2-2.9-0.2c-3.5,0-4.6,2.2-4.6,6.5V12l-1.8,0.1l0,2.8l1.8,0c0,2.3,0,4.7,0,6.4c-1.5,0-3-0.1-4.2-0.1
	c-4.5,0-5.8-2.7-5.8-6.1s0.1-7.2,0.1-8.5c0-3.8,1.7-6,5.9-6c1.6,0,7.4,0,9.4,0c3.8,0,5.7,1.6,5.7,6.2c0,1.1-0.1,3.3-0.1,9.2
	C20.9,19.8,19.1,21.3,14.4,21.3z"/>
</svg>
