<?xml version="1.0" encoding="utf-8"?>
<!-- Generator: Adobe Illustrator 24.1.1, SVG Export Plug-In . SVG Version: 6.00 Build 0)  -->
<svg version="1.1" id="Layer_2_1_" xmlns="http://www.w3.org/2000/svg" xmlns:xlink="http://www.w3.org/1999/xlink" x="0px" y="0px"
	 viewBox="0 0 21 22" style="enable-background:new 0 0 21 22;" xml:space="preserve">
<style type="text/css">
	.st0{fill:#9CA3AF;}
</style>
<path class="st0" d="M10.5,5.6c-3,0-5.4,2.4-5.4,5.4c0,3,2.4,5.4,5.4,5.4c3,0,5.4-2.4,5.4-5.4C15.9,8,13.5,5.6,10.5,5.6z M10.5,14.5
	C8.6,14.5,7,12.9,7,11c0-1.9,1.6-3.5,3.5-3.5c1.9,0,3.5,1.6,3.5,3.5C14,12.9,12.4,14.5,10.5,14.5z M17.4,5.4c0,0.7-0.6,1.3-1.3,1.3
	c-0.7,0-1.3-0.6-1.3-1.3s0.6-1.3,1.3-1.3C16.8,4.1,17.4,4.7,17.4,5.4z M20.9,6.7c-0.1-1.7-0.5-3.2-1.7-4.4C18,1,16.5,0.7,14.8,0.6
	c-1.7-0.1-6.9-0.1-8.7,0C4.5,0.7,3,1,1.8,2.3C0.5,3.5,0.2,5,0.1,6.7C0,8.4,0,13.6,0.1,15.3c0.1,1.7,0.5,3.2,1.7,4.4
	C3,21,4.5,21.3,6.2,21.4c1.7,0.1,6.9,0.1,8.7,0c1.7-0.1,3.2-0.5,4.4-1.7c1.2-1.2,1.6-2.7,1.7-4.4C21,13.6,21,8.4,20.9,6.7z
	 M18.7,17.2c-0.4,0.9-1.1,1.6-2,2c-1.4,0.5-4.7,0.4-6.2,0.4c-1.5,0-4.8,0.1-6.2-0.4c-0.9-0.4-1.6-1.1-2-2c-0.5-1.4-0.4-4.7-0.4-6.2
	c0-1.5-0.1-4.8,0.4-6.2c0.4-0.9,1.1-1.6,2-2C5.7,2.3,9,2.4,10.5,2.4c1.5,0,4.8-0.1,6.2,0.4c0.9,0.4,1.6,1.1,2,2
	c0.5,1.4,0.4,4.7,0.4,6.2C19.1,12.5,19.2,15.8,18.7,17.2z"/>
</svg>
